<svg width="99" height="100" viewBox="0 0 99 100" fill="none" xmlns="http://www.w3.org/2000/svg">
<g clip-path="url(#clip0_374_2721)">
<path d="M73.7343 22.3076C74.2627 23.7102 73.3212 25.3338 71.9089 25.4395C68.3255 25.6893 64.6844 25.3915 61.0626 24.4596C57.4407 23.5277 54.0974 22.0386 51.0808 20.098C49.8991 19.3294 49.8511 17.4464 50.9847 16.4761L64.4346 4.99564C65.4914 4.10218 66.9805 4.47686 67.4705 5.77381L73.7343 22.3076Z" fill="#FFA188"/>
<path d="M75.723 20.1556C76.2514 21.5486 75.3195 23.1722 73.9169 23.2779C69.8435 23.6045 65.6932 23.2779 61.5718 22.2115C57.4503 21.1547 53.6555 19.4447 50.245 17.1966C49.073 16.428 49.0345 14.5547 50.1682 13.5843L65.5395 0.489903C66.5963 -0.403555 68.0854 -0.0288791 68.5753 1.26808L75.723 20.1556Z" fill="#FF3E00"/>
<path d="M15.7556 45.8641C16.3897 44.5191 18.1286 44.0579 19.2526 44.9226C23.0186 47.8239 26.2754 51.3785 28.85 55.5672C31.4247 59.7559 33.1252 64.2712 34.009 68.9402C34.2684 70.3333 33.0676 71.6783 31.5881 71.6398L7.16688 70.9097C5.63936 70.8616 4.71708 69.3629 5.36075 67.9795L15.746 45.8641H15.7556Z" fill="#FFA188"/>
<path d="M11.9896 46.2771C12.6141 44.9417 14.353 44.471 15.477 45.326C19.7618 48.5732 23.4509 52.5794 26.3618 57.306C29.2728 62.0423 31.1654 67.1437 32.1357 72.4276C32.3855 73.8206 31.1846 75.1464 29.7147 75.1079L2.02711 74.2817C0.499589 74.2337 -0.422689 72.735 0.220984 71.3516L11.9993 46.2867L11.9896 46.2771Z" fill="#FF3E00"/>
<path d="M38.5244 15.5058C40.0039 15.7844 40.9934 17.4272 40.417 18.6857C38.7934 22.2211 36.5838 25.4875 33.7689 28.3697C30.954 31.2518 27.7357 33.5383 24.2387 35.2387C22.9994 35.844 21.3277 34.8929 21.0107 33.423L16.9661 14.1032C16.6779 12.7294 17.7347 11.6534 19.1085 11.9031L38.5148 15.4962L38.5244 15.5058Z" fill="#FFA188"/>
<path d="M37.6693 12.6141C39.1488 12.8927 40.1287 14.5355 39.5619 15.794C37.7558 19.8098 35.2676 23.5277 32.078 26.7941C28.8885 30.0605 25.2282 32.6352 21.2508 34.5374C20.0019 35.1331 18.3399 34.1916 18.0229 32.7217L13.4211 10.7311C13.1329 9.35729 14.1896 8.28129 15.5635 8.53108L37.6597 12.6237L37.6693 12.6141Z" fill="#FF3E00"/>
<path d="M45.6625 81.7561C44.4231 80.9106 44.3367 79.1045 45.4703 78.163C49.6398 74.6949 54.4241 71.8896 59.7464 69.9298C65.0687 67.9699 70.5255 67.0092 75.9535 66.942C77.433 66.9227 78.5378 68.3542 78.144 69.8049L71.0828 95.6095C70.6889 97.0601 69.0172 97.675 67.7779 96.8296L45.6625 81.7657V81.7561Z" fill="#FFA188"/>
<path d="M46.7289 84.6478C45.4895 83.8024 45.4031 81.9963 46.5367 81.0548C50.687 77.6059 55.4329 74.8198 60.7168 72.8792C66.0006 70.9289 71.4286 69.9778 76.8182 69.9106C78.2977 69.8914 79.4025 71.3228 79.0086 72.7735L71.9955 98.4148C71.6016 99.8654 69.9299 100.48 68.6906 99.6349L46.7289 84.6671V84.6478Z" fill="#FF3E00"/>
<path d="M81.2182 55.596C80.2671 56.5183 78.6916 56.2108 78.1632 55.01C76.6645 51.5995 75.6461 47.9103 75.2042 44.0195C74.7623 40.1286 74.9352 36.305 75.6365 32.6447C75.8863 31.3477 77.3562 30.7041 78.4898 31.3862L93.4288 40.4456C94.4952 41.0893 94.6585 42.5688 93.7651 43.4334L81.2182 55.596Z" fill="#FFA188"/>
<path d="M83.8409 57.2869C82.8898 58.2091 81.3239 57.9017 80.7859 56.7008C79.0566 52.8484 77.8941 48.6789 77.3946 44.2693C76.895 39.8596 77.1064 35.5364 77.9326 31.3958C78.192 30.0988 79.6522 29.4552 80.7859 30.1373L97.8 40.4553C98.8664 41.0989 99.0297 42.5784 98.1362 43.4431L83.8505 57.2869H83.8409Z" fill="#FF3E00"/>
<path d="M65.9814 31.905C62.177 26.4386 54.6547 24.8246 49.2267 28.2928L39.6773 34.3933C38.3899 35.2099 37.2851 36.2859 36.4301 37.5444C35.575 38.8125 34.9986 40.244 34.7296 41.7427C34.3357 43.9235 34.5759 46.1715 35.4213 48.2082C35.6711 48.8231 35.6327 49.5052 35.3253 50.0912C34.8065 51.0904 34.4318 52.1567 34.2301 53.2712C33.9611 54.8083 33.9899 56.3839 34.3357 57.9018C34.6816 59.4197 35.3157 60.8607 36.2187 62.1289C40.0231 67.5953 47.5455 69.2093 52.9734 65.7411L62.5229 59.6407C63.8102 58.8241 64.915 57.7481 65.7701 56.4895C66.6251 55.2214 67.2015 53.7899 67.4705 52.2912C67.8644 50.1104 67.6242 47.8624 66.7788 45.8257C66.529 45.2108 66.5675 44.5287 66.8749 43.9427C67.3937 42.9436 67.7683 41.8772 67.9701 40.7628C68.2391 39.2256 68.2103 37.6501 67.8644 36.1321C67.5186 34.6142 66.8845 33.1732 65.9814 31.905Z" fill="#FF3E00"/>
<path d="M48.2948 62.6573C46.7961 63.0512 45.2109 62.9648 43.7506 62.4268C42.3 61.8888 41.0414 60.9088 40.1576 59.6311C39.61 58.8721 39.2257 58.0075 39.024 57.0948C38.8222 56.1822 38.7934 55.2311 38.9567 54.3088C39.0144 54.0014 39.0912 53.7035 39.1873 53.4153L39.3698 52.8677L39.5524 53.0022C40.8781 53.9821 42.3672 54.7315 43.9524 55.2118L43.9236 55.5673C43.8755 56.0765 44.0196 56.576 44.3079 56.9892C44.5769 57.3734 44.9515 57.6713 45.3935 57.8346C45.8354 57.9979 46.3061 58.0267 46.7577 57.9018C46.969 57.8442 47.1612 57.7577 47.3437 57.6424L56.8931 51.5419C57.1237 51.3978 57.3254 51.1961 57.4792 50.9655C57.6329 50.7349 57.7385 50.4756 57.7866 50.2066C57.8346 49.928 57.825 49.6397 57.7674 49.3707C57.7097 49.0921 57.5848 48.8327 57.4215 48.6022C57.1525 48.2179 56.7778 47.9201 56.3359 47.7568C55.894 47.5934 55.4232 47.5646 54.9717 47.6895C54.7604 47.7471 54.5682 47.8336 54.3857 47.9489L50.7446 50.2738C50.149 50.6581 49.4957 50.9463 48.804 51.1288C47.3053 51.5227 45.7201 51.4363 44.2598 50.8983C42.8092 50.3603 41.5506 49.3804 40.6668 48.1026C40.1192 47.3437 39.7349 46.479 39.5331 45.5663C39.3314 44.6537 39.3026 43.7026 39.4659 42.7803C39.6292 41.8772 39.9751 41.0126 40.4842 40.2536C40.9934 39.4947 41.6659 38.8414 42.4345 38.361L51.9839 32.2606C52.5795 31.8763 53.2328 31.5881 53.9245 31.4055C55.4232 31.0116 57.0084 31.0981 58.4687 31.6361C59.9193 32.1741 61.1779 33.154 62.0617 34.4317C62.6093 35.1907 62.9936 36.0553 63.1954 36.968C63.3971 37.8807 63.4259 38.8318 63.2626 39.7541C63.205 40.0615 63.1281 40.3593 63.032 40.6475L62.8495 41.1951L62.667 41.0606C61.3412 40.0807 59.8521 39.341 58.2765 38.8606L58.3054 38.5051C58.3438 37.996 58.2093 37.4964 57.9211 37.0833C57.6521 36.699 57.2774 36.4012 56.8355 36.2379C56.3936 36.0746 55.9228 36.0457 55.4713 36.1706C55.2599 36.2283 55.0678 36.3147 54.8852 36.43L45.3358 42.5305C45.1052 42.6746 44.9035 42.8764 44.7498 43.0973C44.5961 43.3279 44.4904 43.5873 44.4424 43.8563C44.3943 44.1349 44.4039 44.4231 44.4616 44.6921C44.5192 44.9707 44.6441 45.2301 44.8074 45.4607C45.0764 45.8449 45.4511 46.1428 45.893 46.3061C46.3349 46.4694 46.8057 46.4982 47.2572 46.3733C47.4686 46.3157 47.6607 46.2292 47.8433 46.1139L51.4843 43.789C52.08 43.4048 52.7333 43.1165 53.425 42.934C54.9237 42.5401 56.5088 42.6266 57.9691 43.1646C59.4198 43.7026 60.6783 44.6825 61.5622 45.9602C62.1098 46.7192 62.494 47.5838 62.6958 48.4965C62.8975 49.4092 62.9264 50.3603 62.763 51.2826C62.5997 52.1856 62.2539 53.0502 61.7447 53.8092C61.2355 54.5682 60.563 55.2215 59.7945 55.7114L50.245 61.8119C49.6494 62.1962 48.9961 62.4844 48.3044 62.6669L48.2948 62.6573Z" fill="white"/>
<path d="M2.39221 87.0882L1.10486 81.4777H2.43063L3.55466 86.4637H2.71885L5.85075 81.4777H7.18613L3.66995 87.0882H2.40181H2.39221Z" fill="#FF3E00"/>
<path d="M6.53284 87.0882L7.64726 81.4777H8.94421L7.82979 87.0882H6.53284Z" fill="#FF3E00"/>
<path d="M10.6255 86.0505H13.6613L13.45 87.0977H9.146L10.2604 81.4872H14.4587L14.2474 82.5247H11.3364L10.6351 86.0505H10.6255ZM10.9906 83.7448H13.6709L13.4692 84.7536H10.7888L10.9906 83.7448Z" fill="#FF3E00"/>
<path d="M15.6212 87.0882L16.5146 82.5344H14.7373L14.9487 81.4777H19.7906L19.5793 82.5344H17.8116L16.9085 87.0882H15.6212Z" fill="#FF3E00"/>
<path d="M19.3776 87.0882L20.492 81.4776H21.5584L23.9505 85.5414L23.5278 85.5126L24.3252 81.468H25.5933L24.4789 87.0785H23.4221L21.0204 83.0148L21.4527 83.0436L20.6553 87.0882H19.3872H19.3776Z" fill="#FF3E00"/>
<path d="M25.0649 87.0882L28.658 81.4777H29.9357L31.2999 87.0882H30.0126L28.9366 82.1117H29.4458L26.4484 87.0882H25.0745H25.0649ZM26.554 85.8873L27.0728 84.8978H29.9357L30.0894 85.8873H26.5444H26.554Z" fill="#FF3E00"/>
<path d="M31.8763 87.0882L32.9908 81.4777H34.0379L35.6231 85.455H35.0659L38.1498 81.4777H39.2546L38.1498 87.0882H36.9393L37.679 83.3222H37.9288L35.479 86.4926H34.9122L33.6056 83.3126L33.8458 83.3414L33.106 87.0882H31.8956H31.8763Z" fill="#FF3E00"/>
</g>
<defs>
<clipPath id="clip0_374_2721">
<rect width="98.703" height="100" fill="white"/>
</clipPath>
</defs>
</svg>
