<svg width="99" height="101" viewBox="0 0 99 101" fill="none" xmlns="http://www.w3.org/2000/svg">
<g clip-path="url(#clip0_374_2750)">
<path d="M73.7343 22.999C74.2627 24.4016 73.3212 26.0252 71.9089 26.1309C68.3255 26.3807 64.6844 26.0829 61.0626 25.151C57.4407 24.2191 54.0974 22.73 51.0808 20.7894C49.8991 20.0208 49.8511 18.1378 50.9847 17.1675L64.4346 5.68705C65.4914 4.79359 66.9805 5.16826 67.4705 6.46522L73.7343 22.999Z" fill="#FFA188"/>
<path d="M75.723 20.847C76.2514 22.24 75.3195 23.8636 73.9169 23.9693C69.8435 24.2959 65.6932 23.9693 61.5718 22.9029C57.4503 21.8461 53.6555 20.1361 50.245 17.888C49.073 17.1194 49.0345 15.2461 50.1682 14.2757L65.5395 1.18131C66.5963 0.287851 68.0854 0.662527 68.5753 1.95948L75.723 20.847Z" fill="#FF3E00"/>
<path d="M15.7556 46.5555C16.3897 45.2105 18.1286 44.7493 19.2526 45.614C23.0186 48.5153 26.2754 52.0699 28.85 56.2586C31.4247 60.4473 33.1252 64.9626 34.009 69.6316C34.2684 71.0247 33.0676 72.3697 31.5881 72.3312L7.16688 71.6011C5.63936 71.5531 4.71708 70.0544 5.36075 68.6709L15.746 46.5555H15.7556Z" fill="#FFA188"/>
<path d="M11.9896 46.9685C12.6141 45.6331 14.353 45.1624 15.477 46.0174C19.7618 49.2646 23.4509 53.2708 26.3618 57.9974C29.2728 62.7241 31.1654 67.8351 32.1357 73.119C32.3855 74.512 31.1846 75.8378 29.7147 75.7993L2.02711 74.9731C0.499589 74.9251 -0.422689 73.4264 0.220984 72.043L11.9993 46.9781L11.9896 46.9685Z" fill="#FF3E00"/>
<path d="M38.5244 16.1972C40.0039 16.4758 40.9934 18.1186 40.417 19.3771C38.7934 22.9126 36.5838 26.179 33.7689 29.0611C30.954 31.9432 27.7357 34.2297 24.2387 35.9301C22.9994 36.5354 21.3277 35.5843 21.0107 34.1144L16.9661 14.7946C16.6779 13.4208 17.7347 12.3448 19.1085 12.5946L38.5148 16.1876L38.5244 16.1972Z" fill="#FFA188"/>
<path d="M37.6693 13.3055C39.1488 13.5841 40.1287 15.2269 39.5619 16.4854C37.7558 20.5012 35.2676 24.2191 32.078 27.4855C28.8885 30.7519 25.2282 33.3266 21.2508 35.2288C20.0019 35.8245 18.3399 34.883 18.0229 33.4131L13.4211 11.4225C13.1329 10.0487 14.1896 8.9727 15.5635 9.22249L37.6597 13.3151L37.6693 13.3055Z" fill="#FF3E00"/>
<path d="M45.6625 82.4475C44.4231 81.602 44.3367 79.7959 45.4703 78.8544C49.6398 75.3863 54.4241 72.581 59.7464 70.6212C65.0687 68.6613 70.5255 67.7006 75.9535 67.6334C77.433 67.6142 78.5378 69.0456 78.144 70.4963L71.0828 96.3009C70.6889 97.7515 69.0172 98.3664 67.7779 97.521L45.6625 82.4571V82.4475Z" fill="#FFA188"/>
<path d="M46.7289 85.3392C45.4895 84.4938 45.4031 82.6877 46.5367 81.7462C50.687 78.2973 55.4329 75.5112 60.7168 73.5706C66.0006 71.6204 71.4286 70.6692 76.8182 70.602C78.2977 70.5828 79.4025 72.0142 79.0086 73.4649L71.9955 99.1062C71.6016 100.557 69.9299 101.172 68.6906 100.326L46.7289 85.3585V85.3392Z" fill="#FF3E00"/>
<path d="M81.2182 56.2874C80.2671 57.2097 78.6916 56.9023 78.1632 55.7014C76.6645 52.2909 75.6461 48.6017 75.2042 44.7109C74.7623 40.82 74.9352 36.9964 75.6365 33.3361C75.8863 32.0392 77.3562 31.3955 78.4898 32.0776L93.4288 41.137C94.4952 41.7807 94.6585 43.2602 93.7651 44.1248L81.2182 56.2874Z" fill="#FFA188"/>
<path d="M83.8409 57.9783C82.8898 58.9005 81.3239 58.5931 80.7859 57.3922C79.0566 53.5398 77.8941 49.3703 77.3946 44.9607C76.895 40.551 77.1064 36.2279 77.9326 32.0872C78.192 30.7902 79.6522 30.1466 80.7859 30.8287L97.8 41.1467C98.8664 41.7903 99.0297 43.2698 98.1362 44.1345L83.8505 57.9783H83.8409Z" fill="#FF3E00"/>
<path d="M68.6426 34.4507C64.8382 28.9843 57.3158 27.3703 51.8878 30.8384L42.3384 36.9389C41.051 37.7555 39.9462 38.8315 39.0912 40.09C38.2362 41.3582 37.6597 42.7896 37.3908 44.2883C36.9969 46.4691 37.237 48.7172 38.0825 50.7539C38.3322 51.3687 38.2938 52.0508 37.9864 52.6369C37.4676 53.636 37.0929 54.7024 36.8912 55.8168C36.6222 57.354 36.651 58.9295 36.9969 60.4474C37.3427 61.9653 37.9768 63.4064 38.8799 64.6745C42.6843 70.141 50.2066 71.755 55.6346 68.2868L65.184 62.1863C66.4714 61.3697 67.5762 60.2937 68.4312 59.0352C69.2862 57.7671 69.8627 56.3356 70.1317 54.8369C70.5255 52.6561 70.2854 50.408 69.4399 48.3713C69.1902 47.7565 69.2286 47.0744 69.536 46.4884C70.0548 45.4892 70.4295 44.4228 70.6312 43.3084C70.9002 41.7713 70.8714 40.1957 70.5255 38.6778C70.1797 37.1599 69.5456 35.7188 68.6426 34.4507Z" fill="#FF3E00"/>
<path d="M50.9559 65.203C49.4572 65.5969 47.8721 65.5104 46.4118 64.9724C44.9611 64.4344 43.7026 63.4545 42.8187 62.1767C42.2711 61.4178 41.8868 60.5532 41.6851 59.6405C41.4833 58.7278 41.4545 57.7767 41.6178 56.8544C41.6755 56.547 41.7523 56.2492 41.8484 55.961L42.031 55.4134L42.2135 55.5479C43.5393 56.5278 45.0284 57.2771 46.6135 57.7575L46.5847 58.113C46.5367 58.6221 46.6808 59.1217 46.969 59.5348C47.238 59.9191 47.6127 60.2169 48.0546 60.3802C48.4965 60.5435 48.9673 60.5724 49.4188 60.4475C49.6301 60.3898 49.8223 60.3034 50.0048 60.1881L59.5543 54.0876C59.7848 53.9435 59.9866 53.7417 60.1403 53.5112C60.294 53.2806 60.3997 53.0212 60.4477 52.7522C60.4957 52.4736 60.4861 52.1854 60.4285 51.9164C60.3709 51.6378 60.246 51.3784 60.0826 51.1478C59.8136 50.7635 59.439 50.4657 58.997 50.3024C58.5551 50.1391 58.0844 50.1103 57.6328 50.2352C57.4215 50.2928 57.2293 50.3793 57.0468 50.4946L53.4057 52.8195C52.8101 53.2037 52.1568 53.492 51.4651 53.6745C49.9664 54.0684 48.3812 53.9819 46.921 53.4439C45.4703 52.9059 44.2118 51.926 43.3279 50.6483C42.7803 49.8893 42.396 49.0247 42.1943 48.112C41.9925 47.1993 41.9637 46.2482 42.127 45.3259C42.2903 44.4229 42.6362 43.5582 43.1454 42.7993C43.6545 42.0403 44.327 41.387 45.0956 40.9067L54.645 34.8062C55.2407 34.4219 55.894 34.1337 56.5857 33.9512C58.0844 33.5573 59.6695 33.6438 61.1298 34.1817C62.5805 34.7197 63.839 35.6997 64.7229 36.9774C65.2705 37.7364 65.6547 38.601 65.8565 39.5137C66.0582 40.4263 66.0871 41.3774 65.9237 42.2997C65.8661 42.6071 65.7892 42.905 65.6932 43.1932L65.5106 43.7408L65.3281 43.6063C64.0023 42.6264 62.5132 41.8866 60.9377 41.4063L60.9665 41.0508C61.0049 40.5416 60.8704 40.0421 60.5822 39.629C60.3132 39.2447 59.9385 38.9469 59.4966 38.7835C59.0547 38.6202 58.5839 38.5914 58.1324 38.7163C57.921 38.7739 57.7289 38.8604 57.5464 38.9757L47.9969 45.0762C47.7664 45.2203 47.5646 45.422 47.4109 45.643C47.2572 45.8736 47.1515 46.1329 47.1035 46.4019C47.0554 46.6805 47.0651 46.9688 47.1227 47.2378C47.1803 47.5164 47.3052 47.7758 47.4686 48.0063C47.7376 48.3906 48.1122 48.6884 48.5542 48.8517C48.9961 49.0151 49.4668 49.0439 49.9184 48.919C50.1297 48.8614 50.3219 48.7749 50.5044 48.6596L54.1455 46.3347C54.7411 45.9504 55.3944 45.6622 56.0861 45.4797C57.5848 45.0858 59.17 45.1722 60.6302 45.7102C62.0809 46.2482 63.3394 47.2281 64.2233 48.5059C64.7709 49.2648 65.1552 50.1295 65.3569 51.0422C65.5587 51.9548 65.5875 52.9059 65.4242 53.8282C65.2609 54.7313 64.915 55.5959 64.4058 56.3549C63.8966 57.1138 63.2242 57.7671 62.4556 58.2571L52.9062 64.3576C52.3105 64.7418 51.6572 65.0301 50.9655 65.2126L50.9559 65.203Z" fill="white"/>
<path d="M40.6859 35.7092C42.8826 35.7092 44.6633 33.9285 44.6633 31.7318C44.6633 29.5352 42.8826 27.7545 40.6859 27.7545C38.4893 27.7545 36.7086 29.5352 36.7086 31.7318C36.7086 33.9285 38.4893 35.7092 40.6859 35.7092Z" fill="#FF3E00"/>
<path d="M38.7934 32.7598L38.3323 30.6366H38.9375L39.3218 32.4619H39.0048L40.1192 30.6366H40.7244L39.4179 32.7598H38.7934Z" fill="white"/>
<path d="M42.1943 30.6078C42.3768 30.6078 42.5306 30.6462 42.6554 30.7231C42.7803 30.7999 42.8668 30.9056 42.9244 31.0497C42.9725 31.1938 42.9821 31.3764 42.9437 31.5877L42.7131 32.7598H42.1078L42.3384 31.6261C42.3672 31.4724 42.3576 31.3475 42.3 31.2707C42.2423 31.1842 42.1463 31.1458 41.9926 31.1458C41.8388 31.1458 41.714 31.1938 41.6083 31.2803C41.5026 31.3667 41.4354 31.5012 41.3969 31.6934L41.1856 32.7694H40.5803L40.9934 30.6462H41.5698L41.445 31.2419L41.3585 31.0593C41.4642 30.9056 41.5891 30.7903 41.7332 30.7135C41.8869 30.6366 42.0406 30.6078 42.2039 30.6078H42.1943Z" fill="white"/>
</g>
<defs>
<clipPath id="clip0_374_2750">
<rect width="98.703" height="100" fill="white" transform="translate(0 0.691406)"/>
</clipPath>
</defs>
</svg>
