<svg width="89" height="101" viewBox="0 0 89 101" fill="none" xmlns="http://www.w3.org/2000/svg">
<g clip-path="url(#clip0_496_3089)">
<path d="M79.7211 3.49104C64.8789 2.77637 12.4248 0.400096 12.4248 0.400096C7.64327 0.203563 2.87956 4.38437 2.73736 8.95825L0 74.6363C0.0355501 80.4787 5.84799 82.7478 12.4248 80.2464C17.775 78.2096 24.9562 72.8318 24.5473 72.403C24.2096 72.0278 10.3628 81.8187 4.87036 76.7803C0.266626 72.5816 12.3359 52.9818 34.9813 33.2034C50.6589 19.4996 68.8072 8.67239 79.881 4.79531C80.6098 4.54517 80.4854 3.52677 79.7033 3.49104H79.7211ZM15.3932 46.9429C14.54 47.6933 13.3668 48.801 11.9982 50.3554C10.3628 52.1957 8.99417 54.1968 7.99877 55.7869C7.51884 56.5552 6.29236 56.2514 6.29236 55.376L5.70579 13.2999C5.70579 12.6745 6.63009 12.5137 6.80784 13.1212C10.114 24.8596 14.6466 38.3669 16.4064 43.4946C16.8152 44.7274 16.4241 46.0853 15.3932 46.9608V46.9429Z" fill="#FF3E00"/>
<path d="M84.2004 34.061C77.1614 23.8948 63.2436 20.8932 53.2007 27.3431L35.5323 38.6884C33.1504 40.2071 31.1063 42.2082 29.5243 44.5487C27.9424 46.9071 26.8759 49.5693 26.3782 52.3565C25.6494 56.4122 26.0938 60.593 27.658 64.3808C28.1201 65.5242 28.049 66.7928 27.4802 67.8826C26.5204 69.7408 25.8271 71.724 25.4539 73.7965C24.9561 76.6552 25.0095 79.5853 25.6494 82.4083C26.2893 85.2312 27.4624 87.9112 29.1333 90.2696C36.1722 100.436 50.0901 103.437 60.133 96.9875L77.8013 85.6422C80.1832 84.1235 82.2273 82.1224 83.8093 79.7819C85.3913 77.4235 86.4578 74.7613 86.9555 71.9741C87.6843 67.9184 87.2399 63.7376 85.6757 59.9498C85.2135 58.8064 85.2846 57.5378 85.8534 56.448C86.8133 54.5898 87.5065 52.6066 87.8798 50.5341C88.3775 47.6754 88.3242 44.7453 87.6843 41.9223C87.0444 39.0994 85.8712 36.4194 84.2004 34.061Z" fill="#FF3E00"/>
<path d="M51.4765 91.2523C48.7036 91.9848 45.7707 91.824 43.0689 90.8235C40.3849 89.823 38.0564 88.0006 36.4211 85.6243C35.4079 84.2128 34.6969 82.6048 34.3236 80.9075C33.9503 79.2101 33.897 77.4413 34.1992 75.7261C34.3058 75.1544 34.448 74.6005 34.6258 74.0645L34.9635 73.0461L35.3012 73.2963C37.7542 75.1187 40.5093 76.5123 43.4422 77.4056L43.3889 78.0667C43.3 79.0136 43.5666 79.9427 44.0999 80.7109C44.5976 81.4256 45.2908 81.9795 46.1085 82.2832C46.9261 82.587 47.7971 82.6406 48.6325 82.4083C49.0236 82.3011 49.3791 82.1403 49.7168 81.9259L67.3852 70.5805C67.8118 70.3125 68.1851 69.9373 68.4695 69.5085C68.7539 69.0797 68.9494 68.5973 69.0383 68.097C69.1271 67.5789 69.1094 67.0429 69.0027 66.5426C68.8961 66.0245 68.665 65.5421 68.3628 65.1133C67.8651 64.3986 67.1719 63.8448 66.3542 63.541C65.5366 63.2373 64.6656 63.1837 63.8302 63.416C63.4391 63.5232 63.0836 63.684 62.7459 63.8984L56.0092 68.2221C54.9071 68.9368 53.6984 69.4728 52.4186 69.8122C49.6457 70.5448 46.7128 70.384 44.011 69.3835C41.327 68.3829 38.9984 66.5605 37.3631 64.1842C36.35 62.7728 35.639 61.1648 35.2657 59.4674C34.8924 57.7701 34.8391 56.0013 35.1413 54.2861C35.4434 52.6066 36.0833 50.9986 37.0254 49.5871C37.9675 48.1757 39.2117 46.9607 40.6337 46.0674L58.3021 34.722C59.4042 34.0074 60.6129 33.4714 61.8927 33.1319C64.6656 32.3994 67.5985 32.5602 70.3003 33.5607C72.9843 34.5612 75.3129 36.3836 76.9482 38.7599C77.9613 40.1714 78.6723 41.7794 79.0456 43.4767C79.4189 45.1741 79.4722 46.9429 79.17 48.6581C79.0634 49.2298 78.9212 49.7837 78.7434 50.3197L78.4057 51.3381L78.068 51.0879C75.615 49.2655 72.8599 47.8898 69.9448 46.9965L69.9981 46.3354C70.0692 45.3885 69.8204 44.4594 69.2871 43.6911C68.7894 42.9764 68.0962 42.4226 67.2785 42.1188C66.4609 41.8151 65.5899 41.7615 64.7545 41.9938C64.3634 42.101 64.0079 42.2618 63.6702 42.4762L46.0018 53.8215C45.5752 54.0895 45.2019 54.4647 44.9175 54.8757C44.6331 55.3045 44.4376 55.7869 44.3487 56.2871C44.2599 56.8053 44.2776 57.3413 44.3843 57.8416C44.4909 58.3597 44.722 58.8421 45.0242 59.2709C45.5219 59.9856 46.2151 60.5394 47.0328 60.8432C47.8504 61.1469 48.7214 61.2005 49.5568 60.9682C49.9479 60.861 50.3034 60.7002 50.6411 60.4858L57.3778 56.1621C58.4799 55.4474 59.6886 54.9114 60.9684 54.5719C63.7413 53.8394 66.6742 54.0002 69.376 55.0007C72.06 56.0013 74.3885 57.8237 76.0239 60.2C77.037 61.6114 77.748 63.2194 78.1213 64.9168C78.4946 66.6141 78.5479 68.3829 78.2457 70.0981C77.9436 71.7776 77.3037 73.3856 76.3616 74.7971C75.4195 76.2085 74.1752 77.4235 72.7532 78.3347L55.0849 89.68C53.9828 90.3947 52.7741 90.9307 51.4943 91.2702L51.4765 91.2523Z" fill="white"/>
<path d="M70.4425 22.5905C72.0955 23.2873 73.9975 22.8585 75.0284 21.3756C78.0146 17.0339 83.0627 8.97605 80.9831 6.88565C79.3833 5.25978 68.2206 12.1027 58.8354 18.3382C56.809 19.6782 58.1066 22.8585 60.4884 22.394C64.1679 21.6614 67.8118 21.5006 70.4425 22.6084V22.5905Z" fill="#FF3E00"/>
<path d="M8.14096 74.6898C10.1495 77.3698 16.4064 74.5111 20.2813 72.3492C22.0588 71.3487 22.912 69.3476 22.3432 67.5073C21.4011 64.4343 20.4057 59.1815 21.8455 52.9281C22.1121 51.7489 20.5479 51.0521 19.7481 51.999C14.22 58.5025 4.977 70.4911 8.15873 74.7076L8.14096 74.6898Z" fill="#FF3E00"/>
</g>
<defs>
<clipPath id="clip0_496_3089">
<rect width="88.2353" height="100" fill="white" transform="translate(0 0.400024)"/>
</clipPath>
</defs>
</svg>
